<svg xmlns="http://www.w3.org/2000/svg" width="1200" height="520"><defs><linearGradient id="g" x1="0" x2="1"><stop stop-color="#080808"/><stop offset="1" stop-color="#252525"/></linearGradient></defs><rect width="1200" height="520" rx="28" fill="url(#g)"/><path d="M900 0L1200 0L1200 240Z" fill="#1e1e1e"/><text x="70" y="95" fill="#999" font-size="18" font-family="Arial" letter-spacing="5">AFX PROJECT PREVIEW</text><text x="70" y="170" fill="#fff" font-size="54" font-family="Arial" font-weight="800">AFX Portfolio • Features</text><text x="70" y="215" fill="#bbb" font-size="24" font-family="Arial">Visual feature overview</text><rect x="70" y="245" width="160" height="4" fill="#eee"/><g transform="translate(70 300)"><rect width="210" height="110" rx="18" fill="#151515" stroke="#3a3a3a"/><text x="18" y="42" fill="#f5f5f5" font-size="22" font-family="Arial" font-weight="700">PROFILE</text><rect x="18" y="62" width="95" height="8" rx="4" fill="#777"/><rect x="18" y="80" width="132" height="8" rx="4" fill="#333"/></g><g transform="translate(315 300)"><rect width="210" height="110" rx="18" fill="#151515" stroke="#3a3a3a"/><text x="18" y="42" fill="#f5f5f5" font-size="22" font-family="Arial" font-weight="700">SAMURAI</text><rect x="18" y="62" width="110" height="8" rx="4" fill="#777"/><rect x="18" y="80" width="126" height="8" rx="4" fill="#333"/></g><g transform="translate(560 300)"><rect width="210" height="110" rx="18" fill="#151515" stroke="#3a3a3a"/><text x="18" y="42" fill="#f5f5f5" font-size="22" font-family="Arial" font-weight="700">MOTION</text><rect x="18" y="62" width="125" height="8" rx="4" fill="#777"/><rect x="18" y="80" width="120" height="8" rx="4" fill="#333"/></g><g transform="translate(805 300)"><rect width="210" height="110" rx="18" fill="#151515" stroke="#3a3a3a"/><text x="18" y="42" fill="#f5f5f5" font-size="22" font-family="Arial" font-weight="700">PROJECTS</text><rect x="18" y="62" width="140" height="8" rx="4" fill="#777"/><rect x="18" y="80" width="114" height="8" rx="4" fill="#333"/></g><text x="70" y="470" fill="#777" font-size="18" font-family="Arial">Shaik Arfan • AFX</text></svg>